<svg width="10" height="12" viewBox="0 0 10 12" fill="none" xmlns="http://www.w3.org/2000/svg">
<path d="M4.00002 0L3.40002 0.6H0.400024V1.8H1.00002V10.8C1.00002 11.1133 1.11482 11.4328 1.34104 11.659C1.56726 11.8852 1.88669 12 2.20002 12H8.20002C8.51336 12 8.83279 11.8852 9.05901 11.659C9.28523 11.4328 9.40002 11.1133 9.40002 10.8V1.8H10V0.6H7.00002L6.40002 0H4.00002ZM2.20002 1.8H8.20002V10.8H2.20002V1.8ZM3.40002 3V9.6H4.60002V3H3.40002ZM5.80002 3V9.6H7.00002V3H5.80002Z" fill="#BABABA"/>
</svg>
